<svg width="1080" height="1080" viewBox="0 0 1080 1080" fill="none" xmlns="http://www.w3.org/2000/svg">
<path d="M964.957 388.567C963.448 441.449 941.716 491.714 904.254 529.026L772.382 661.03C733.579 700.054 680.824 721.932 625.788 721.764H625.586C511.088 721.697 418.355 628.751 418.456 514.229C418.456 512.35 418.456 510.437 418.523 508.558C418.993 491.781 432.978 478.56 449.747 479.03C466.516 479.5 479.73 493.492 479.26 510.269C476.98 591.203 540.702 658.681 621.595 660.963C622.937 660.997 624.279 661.03 625.654 661.03C664.524 661.131 701.852 645.662 729.286 618.08L861.157 486.143C918.038 428.53 917.467 335.651 859.849 278.742C802.768 222.337 710.941 222.337 653.859 278.742L612.104 320.518C599.963 332.061 580.746 331.591 569.176 319.411C558.041 307.7 558.041 289.312 569.176 277.568L610.93 235.793C691.891 154.758 823.192 154.725 904.187 235.759C904.187 235.759 904.187 235.759 904.22 235.793C944.533 276.226 966.467 331.423 964.924 388.533L964.957 388.567ZM467.891 758.439L426.136 800.215C398.635 827.897 361.173 843.433 322.168 843.265C241.208 843.198 175.641 777.498 175.708 696.497C175.708 657.641 191.169 620.395 218.603 592.948L350.24 461.011C407.321 403.599 500.154 403.331 557.538 460.474C586.28 489.063 601.875 528.288 600.668 568.822C600.198 585.599 613.412 599.558 630.181 600.061C646.95 600.531 660.902 587.311 661.405 570.533C662.881 513.558 640.947 458.427 600.701 418.061C519.741 337.094 388.473 337.094 307.512 418.061L175.741 549.998C94.7808 630.965 94.7473 762.231 175.674 843.232C214.478 882.088 267.132 903.932 322.034 903.999C377.07 904.167 429.859 882.289 468.662 843.265L510.417 801.49C521.283 788.705 519.707 769.546 506.929 758.674C495.694 749.144 479.26 749.044 467.924 758.439H467.891Z" fill="#2563EB"/>
</svg>
