<svg width="921" height="218" viewBox="0 0 921 218" fill="none" xmlns="http://www.w3.org/2000/svg">
<g clip-path="url(#clip0_2_2)">
<path d="M0 84.58V70.08H74.83V84.58H0ZM20.74 113.73V45.14H37.27V113.74H20.74V113.73ZM56.29 154.27C43.77 154.27 34.71 151.67 29.12 146.48C23.53 141.28 20.74 132.97 20.74 121.53V107.5H37.27V120.75C37.27 127.3 38.87 132.05 42.06 135.02C45.26 137.98 50.52 139.46 57.85 139.46C60.45 139.46 63.2 139.32 66.11 139.03C69.02 138.74 72.35 138.37 76.09 137.9L77.96 152.4C74.32 153.02 70.77 153.49 67.32 153.8C63.86 154.11 60.19 154.27 56.29 154.27Z" fill="white"/>
<path d="M94.32 152.71V138.21H149.51V152.71H94.32ZM97.44 84.58V70.08H125.03L126.59 84.58H97.44ZM112.72 152.71V70.08H126.13L129.25 93.78V152.71H112.72ZM129.25 117.16L124.42 91.28H130.81C131.75 76.11 139.33 68.52 153.57 68.52C162.09 68.52 168.28 70.96 172.12 75.85C175.96 80.74 177.89 88.63 177.89 99.55H161.52C161.52 93.52 160.62 89.18 158.83 86.53C157.04 83.88 154.14 82.55 150.14 82.55C143.12 82.55 137.89 85.55 134.43 91.55C130.97 97.55 129.25 106.09 129.25 117.16Z" fill="white"/>
<path d="M194.1 152.71V138.21H227.15V152.71H194.1ZM198.78 84.58V70.08H242.12V84.58H198.78ZM233.31 56.99C230.14 56.99 227.42 55.86 225.16 53.6C222.9 51.34 221.77 48.63 221.77 45.45C221.77 42.27 222.9 39.5 225.16 37.27C227.42 35.04 230.14 33.92 233.31 33.92C236.48 33.92 239.26 35.04 241.49 37.27C243.72 39.5 244.84 42.23 244.84 45.45C244.84 48.67 243.72 51.34 241.49 53.6C239.26 55.86 236.53 56.99 233.31 56.99ZM225.59 152.72V74.77H242.12V152.72H225.59ZM240.56 152.72V138.22H267.53V152.72H240.56Z" fill="white"/>
<path d="M283.9 152.71V70.08H298.56L300.43 87.54V152.71H283.9ZM314.93 152.71V88.01C314.93 83.33 312.75 80.99 308.38 80.99C303.08 80.99 300.43 84.73 300.43 92.22L295.6 80.37H300.9C301.52 72.47 306.25 68.52 315.09 68.52C319.4 68.52 322.79 70 325.26 72.96C327.73 75.92 328.96 80.42 328.96 86.45V152.71H314.93ZM343.46 152.71V89.57C343.46 83.85 341.33 80.99 337.07 80.99C331.66 80.99 328.96 84.73 328.96 92.22L323.35 80.37H329.74C330 77.15 331.29 74.37 333.6 72.03C335.91 69.69 339.25 68.52 343.62 68.52C349.34 68.52 353.49 70.05 356.09 73.12C358.69 76.19 359.99 81.15 359.99 88.01V152.71H343.46Z" fill="white"/>
<path d="M656.98 50.28V35.78H682.7V50.28H656.98ZM708.43 154.27C698.87 154.27 691.96 151.67 687.69 146.48C683.43 141.28 681.3 132.97 681.3 121.53V35.79H697.83V120.76C697.83 125.13 698.25 128.69 699.08 131.44C699.91 134.2 701.54 136.22 703.95 137.52C706.37 138.82 709.94 139.47 714.67 139.47C718.98 139.47 724.49 138.48 731.2 136.51L733.07 151.01C728.86 152.15 724.82 152.98 720.95 153.5C717.08 154.02 712.91 154.28 708.44 154.28L708.43 154.27Z" fill="white"/>
<path d="M789.66 154.27C778.23 154.27 769.34 150.53 763 143.05C756.66 135.57 753.49 125.02 753.49 111.4C753.49 97.78 756.66 87.17 763 79.71C769.34 72.25 778.23 68.52 789.66 68.52C801.09 68.52 810.04 72.25 816.36 79.71C822.67 87.17 825.83 97.73 825.83 111.4C825.83 125.07 822.67 135.57 816.36 143.05C810.05 150.53 801.15 154.27 789.66 154.27ZM789.66 139.46C795.74 139.46 800.43 137.02 803.73 132.13C807.03 127.25 808.68 120.33 808.68 111.4C808.68 102.47 807.03 95.48 803.73 90.62C800.43 85.76 795.74 83.33 789.66 83.33C783.58 83.33 778.89 85.76 775.59 90.62C772.29 95.48 770.64 102.41 770.64 111.4C770.64 120.39 772.29 127.25 775.59 132.13C778.89 137.02 783.58 139.46 789.66 139.46Z" fill="white"/>
<path d="M844.07 50.28V35.78H869.79V50.28H844.07ZM895.52 154.27C885.96 154.27 879.05 151.67 874.78 146.48C870.52 141.28 868.39 132.97 868.39 121.53V35.79H884.92V120.76C884.92 125.13 885.34 128.69 886.17 131.44C887 134.2 888.63 136.22 891.04 137.52C893.46 138.82 897.03 139.47 901.76 139.47C906.07 139.47 911.58 138.48 918.29 136.51L920.16 151.01C915.95 152.15 911.91 152.98 908.04 153.5C904.17 154.02 900 154.28 895.53 154.28L895.52 154.27Z" fill="white"/>
<path d="M637.88 63.63C637.43 79.39 630.95 94.37 619.78 105.49L580.46 144.83C568.89 156.46 553.16 162.98 536.75 162.93H536.69C502.55 162.91 474.9 135.21 474.93 101.08C474.93 100.52 474.93 99.95 474.95 99.39C475.09 94.39 479.26 90.45 484.26 90.59C489.26 90.73 493.2 94.9 493.06 99.9C492.38 124.02 511.38 144.13 535.5 144.81C535.9 144.82 536.3 144.83 536.71 144.83C548.3 144.86 559.43 140.25 567.61 132.03L606.93 92.71C623.89 75.54 623.72 47.86 606.54 30.9C589.52 14.09 562.14 14.09 545.12 30.9L532.67 43.35C529.05 46.79 523.32 46.65 519.87 43.02C516.55 39.53 516.55 34.05 519.87 30.55L532.32 18.1C556.46 -6.05 595.61 -6.06 619.76 18.09C619.76 18.09 619.76 18.09 619.77 18.1C631.79 30.15 638.33 46.6 637.87 63.62L637.88 63.63ZM489.67 173.86L477.22 186.31C469.02 194.56 457.85 199.19 446.22 199.14C422.08 199.12 402.53 179.54 402.55 155.4C402.55 143.82 407.16 132.72 415.34 124.54L454.59 85.22C471.61 68.11 499.29 68.03 516.4 85.06C524.97 93.58 529.62 105.27 529.26 117.35C529.12 122.35 533.06 126.51 538.06 126.66C543.06 126.8 547.22 122.86 547.37 117.86C547.81 100.88 541.27 84.45 529.27 72.42C505.13 48.29 465.99 48.29 441.85 72.42L402.56 111.74C378.42 135.87 378.41 174.99 402.54 199.13C414.11 210.71 429.81 217.22 446.18 217.24C462.59 217.29 478.33 210.77 489.9 199.14L502.35 186.69C505.59 182.88 505.12 177.17 501.31 173.93C497.96 171.09 493.06 171.06 489.68 173.86H489.67Z" fill="#2563EB"/>
</g>
<defs>
<clipPath id="clip0_2_2">
<rect width="920.15" height="217.24" fill="white"/>
</clipPath>
</defs>
</svg>
